/* XPM */
static const char * const absent48_xpm[] = {
"29 38 2 1",
" 	c None",
".	c #950000",
"                             ",
"                             ",
"                             ",
"                             ",
"                             ",
"                             ",
"                             ",
"                             ",
"                             ",
"  ...            ...         ",
"  ....          ....         ",
"   ....         ...          ",
"    ...        ...           ",
"    ....      ....           ",
"     ....     ...            ",
"      ...    ...             ",
"       ...  ...              ",
"       .... ...              ",
"        ......               ",
"         ....                ",
"         ....                ",
"        ......               ",
"        ......               ",
"       ...  ...              ",
"      ....  ....             ",
"      ...    ...             ",
"     ...      ...            ",
"    ...       ....           ",
"   ....        ...           ",
"   ...          ...          ",
"  ...           ....         ",
" ....            ....        ",
"                             ",
"                             ",
"                             ",
"                             ",
"                             ",
"                             "};
