/* XPM */
static const char * const unknown48_xpm[] = {
"48 48 843 2",
"  	c #D5F2F8",
". 	c #D4F1F7",
"+ 	c #D3F0F6",
"@ 	c #D2EFF5",
"# 	c #D1EEF4",
"$ 	c #D6F3F9",
"% 	c #D0EDF3",
"& 	c #CFECF2",
"* 	c #CEEBF1",
"= 	c #CDEAF0",
"- 	c #CDE8EF",
"; 	c #CEE9F0",
"> 	c #CFEAF1",
", 	c #D0EBF2",
"' 	c #CCE7EE",
") 	c #CBE6ED",
"! 	c #C9E4EB",
"~ 	c #C8E3EA",
"{ 	c #C7E3E7",
"] 	c #C6E2E6",
"^ 	c #C5E1E5",
"/ 	c #C4E0E4",
"( 	c #C5E0E7",
"_ 	c #C6E1E8",
": 	c #C7E2E9",
"< 	c #C9E5E9",
"[ 	c #CAE6EA",
"} 	c #CBE8EE",
"| 	c #CCE9EF",
"1 	c #C2DEE2",
"2 	c #C0DCE0",
"3 	c #C0D9DE",
"4 	c #BED7DC",
"5 	c #BDD6DB",
"6 	c #BBD7DB",
"7 	c #BAD6DA",
"8 	c #BCD5DA",
"9 	c #BEDADE",
"0 	c #BFDBDF",
"a 	c #CAE5EC",
"b 	c #CFEBEF",
"c 	c #CCE8EC",
"d 	c #C8E4E8",
"e 	c #C6DFE4",
"f 	c #C2DBE0",
"g 	c #BAD3D8",
"h 	c #B7D0D5",
"i 	c #B5CCD2",
"j 	c #B3CAD0",
"k 	c #B1C8CE",
"l 	c #B0C9CD",
"m 	c #AFC8CC",
"n 	c #AEC7CB",
"o 	c #AFC7CB",
"p 	c #AEC6CA",
"q 	c #B0C8CC",
"r 	c #B0C7CD",
"s 	c #B2C9CF",
"t 	c #B4CDD2",
"u 	c #B6CFD4",
"v 	c #C1DADF",
"w 	c #C5DEE3",
"x 	c #CBE7EB",
"y 	c #B8D1D6",
"z 	c #AFC6CC",
"A 	c #ABC3C7",
"B 	c #A8C0C4",
"C 	c #A8BDC2",
"D 	c #A6BBC0",
"E 	c #A5BABF",
"F 	c #A4B9BE",
"G 	c #A3B8BD",
"H 	c #A2B7BC",
"I 	c #A1B6BB",
"J 	c #A0B5BA",
"K 	c #A7BCC1",
"L 	c #ADC5C9",
"M 	c #C4DDE2",
"N 	c #C1DDE1",
"O 	c #AEC5CB",
"P 	c #A7BFC3",
"Q 	c #A1B9BD",
"R 	c #9EB3B8",
"S 	c #9BB0B5",
"T 	c #98ADB2",
"U 	c #96ABB0",
"V 	c #97AAB0",
"W 	c #96A9AF",
"X 	c #95A8AE",
"Y 	c #93A6AC",
"Z 	c #92A5AB",
"` 	c #91A4AA",
" .	c #8FA2A6",
"..	c #8FA2A8",
"+.	c #9AAFB4",
"@.	c #A4BBC1",
"#.	c #ADC4CA",
"$.	c #B3CCD1",
"%.	c #CBE8EC",
"&.	c #B4CBD1",
"*.	c #A3B8BB",
"=.	c #9BAFB6",
"-.	c #89989B",
";.	c #4A5358",
">.	c #191D1C",
",.	c #000000",
"'.	c #000100",
").	c #010002",
"!.	c #010000",
"~.	c #000002",
"{.	c #000201",
"].	c #1F2324",
"^.	c #616B6D",
"/.	c #B0C9CE",
"(.	c #C4DCE6",
"_.	c #C7E4E8",
":.	c #CDE9ED",
"<.	c #AAC2C6",
"[.	c #A0B2BC",
"}.	c #93ABAF",
"|.	c #89A1A3",
"1.	c #535B5D",
"2.	c #050608",
"3.	c #747579",
"4.	c #BFCBCB",
"5.	c #ECFAFD",
"6.	c #EBF9FC",
"7.	c #EEF9FD",
"8.	c #EDFBFE",
"9.	c #EEF9FB",
"0.	c #EFFAFC",
"a.	c #EFFAFE",
"b.	c #ECFAFB",
"c.	c #E9F7FA",
"d.	c #E8F7FA",
"e.	c #E3F5F9",
"f.	c #DFF4F7",
"g.	c #DBF4F9",
"h.	c #B0C5CA",
"i.	c #687274",
"j.	c #040605",
"k.	c #748386",
"l.	c #C3DEE5",
"m.	c #A0B8BC",
"n.	c #96A7AF",
"o.	c #889A9E",
"p.	c #718181",
"q.	c #08090B",
"r.	c #C4CACA",
"s.	c #F2FAFC",
"t.	c #EEFCFD",
"u.	c #F1FAFF",
"v.	c #F0FAFC",
"w.	c #F0FCFC",
"x.	c #F4FDFC",
"y.	c #F5FBFB",
"z.	c #F3FBFD",
"A.	c #F6FCFC",
"B.	c #F6FBFE",
"C.	c #F3FBFE",
"D.	c #F2FCFE",
"E.	c #EDF8FC",
"F.	c #E9F8FB",
"G.	c #E3F6FD",
"H.	c #DCF4F6",
"I.	c #DAF3F8",
"J.	c #D7F2F9",
"K.	c #ABC3C5",
"L.	c #080A09",
"M.	c #ABC4C8",
"N.	c #CAE3E8",
"O.	c #B2CBD0",
"P.	c #A5BDC1",
"Q.	c #99AEB3",
"R.	c #899CA0",
"S.	c #7F8E91",
"T.	c #363E41",
"U.	c #818286",
"V.	c #F5FDFF",
"W.	c #F2FCFD",
"X.	c #F2FAFD",
"Y.	c #F1FBFD",
"Z.	c #F6FAFD",
"`.	c #D4D8D9",
" +	c #F0F4F5",
".+	c #D9DDDE",
"++	c #F9FDFE",
"@+	c #FAFEFF",
"#+	c #F7FDFD",
"$+	c #E8F7FC",
"%+	c #E2F5F9",
"&+	c #D8F5F9",
"*+	c #D7F3F7",
"=+	c #D6F1FA",
"-+	c #6F7E81",
";+	c #5B666A",
">+	c #C4DFE6",
",+	c #91A6AB",
"'+	c #819498",
")+	c #738285",
"!+	c #0D1114",
"~+	c #D5D9DA",
"{+	c #F7FBFE",
"]+	c #EDFBFC",
"^+	c #F1FBFC",
"/+	c #EDF1F2",
"(+	c #535355",
"_+	c #353736",
":+	c #DEE0DF",
"<+	c #080808",
"[+	c #DCDDDF",
"}+	c #FEFEFF",
"|+	c #FCFDFF",
"1+	c #F9FDFF",
"2+	c #EAF8FB",
"3+	c #D7F4F8",
"4+	c #B8CFD7",
"5+	c #1C1E1D",
"6+	c #C3DFE3",
"7+	c #CAE7ED",
"8+	c #A9C1C5",
"9+	c #8B9EA2",
"0+	c #7B8A8F",
"a+	c #6C7A7D",
"b+	c #070709",
"c+	c #E9EFEF",
"d+	c #F4FCFE",
"e+	c #F1FDFD",
"f+	c #EAFAFA",
"g+	c #E1E9EB",
"h+	c #383C3D",
"i+	c #202425",
"j+	c #1D1E20",
"k+	c #F7F9F8",
"l+	c #CED0CF",
"m+	c #FFFFFF",
"n+	c #FCFEFD",
"o+	c #F3FCFB",
"p+	c #E7F6FB",
"q+	c #DEF6F8",
"r+	c #DAF0FB",
"s+	c #D8F1F8",
"t+	c #C7E4EA",
"u+	c #0C0E09",
"v+	c #C9E6EC",
"w+	c #97AAAE",
"x+	c #85989C",
"y+	c #768487",
"z+	c #657575",
"A+	c #060608",
"B+	c #E8ECEF",
"C+	c #EAF8F9",
"D+	c #EAF9FE",
"E+	c #E5F9FA",
"F+	c #D2DCDE",
"G+	c #23272A",
"H+	c #242829",
"I+	c #454B4B",
"J+	c #FEFCFD",
"K+	c #131313",
"L+	c #C0C0C2",
"M+	c #FDFEFF",
"N+	c #F8FCFF",
"O+	c #EBF9FA",
"P+	c #E4F6FA",
"Q+	c #DEF7FB",
"R+	c #D8F4F7",
"S+	c #0B0B0D",
"T+	c #C0D9E0",
"U+	c #94A7AB",
"V+	c #809397",
"W+	c #707F82",
"X+	c #607070",
"Y+	c #050505",
"Z+	c #E7EDED",
"`+	c #ECFCFC",
" @	c #E8F7FE",
".@	c #E5F7F9",
"+@	c #696E72",
"@@	c #292D30",
"#@	c #475150",
"$@	c #3F4948",
"%@	c #E7E5E8",
"&@	c #272727",
"*@	c #B2B0B1",
"=@	c #FFFEFF",
"-@	c #FEFEFE",
";@	c #E5F8FF",
">@	c #E0F3F7",
",@	c #D4F3F8",
"'@	c #CAE3EA",
")@	c #080C0D",
"!@	c #BED7DB",
"~@	c #C6E3E9",
"{@	c #91A4A8",
"]@	c #7F9193",
"^@	c #6D7B7E",
"/@	c #5D6B6C",
"(@	c #060606",
"_@	c #E4ECEF",
":@	c #E4F7FB",
"<@	c #E3F6FA",
"[@	c #5F6867",
"}@	c #2E3235",
"|@	c #454F51",
"1@	c #414747",
"2@	c #090B0A",
"3@	c #CDCBCE",
"4@	c #454545",
"5@	c #B8B8B8",
"6@	c #FFFEFD",
"7@	c #FFFFFD",
"8@	c #F0FAFB",
"9@	c #E1F4FB",
"0@	c #D9F5F8",
"a@	c #0A0B0D",
"b@	c #C6E4E6",
"c@	c #D3EEF7",
"d@	c #D4F2FA",
"e@	c #D5F2F6",
"f@	c #D3F2F7",
"g@	c #7C8E90",
"h@	c #6B797C",
"i@	c #5E696B",
"j@	c #050706",
"k@	c #E5F7FB",
"l@	c #2F3336",
"m@	c #1C2021",
"n@	c #212322",
"o@	c #DDDDDF",
"p@	c #FEFFFF",
"q@	c #F8FCFD",
"r@	c #F3FDFF",
"s@	c #EBFBFA",
"t@	c #E6F8FC",
"u@	c #E0F4FB",
"v@	c #E2F1F3",
"w@	c #DADEDE",
"x@	c #B3A89A",
"y@	c #988778",
"z@	c #948679",
"A@	c #A6A09A",
"B@	c #D1D8D5",
"C@	c #D3F0F4",
"D@	c #D5F4F6",
"E@	c #D4F1F5",
"F@	c #D6F1F8",
"G@	c #8EA1A5",
"H@	c #7B8D8F",
"I@	c #6A787B",
"J@	c #5D686A",
"K@	c #747D7C",
"L@	c #282D30",
"M@	c #3E484A",
"N@	c #1A1B1D",
"O@	c #F1F3F2",
"P@	c #FFFEFC",
"Q@	c #FDFDFD",
"R@	c #F7FBFA",
"S@	c #E4F7FE",
"T@	c #E9EFF1",
"U@	c #8A8A8A",
"V@	c #686868",
"W@	c #818181",
"X@	c #676767",
"Y@	c #898886",
"Z@	c #DAE9E7",
"`@	c #D6F2F6",
" #	c #9FB4B9",
".#	c #8DA0A4",
"+#	c #7A8C8E",
"@#	c #5C6769",
"##	c #8D9393",
"$#	c #212526",
"%#	c #4A5455",
"&#	c #DBDBDB",
"*#	c #F2FDFF",
"=#	c #E3ECEB",
"-#	c #6F6F6F",
";#	c #A8A8A8",
">#	c #E4E4E4",
",#	c #EEEEEE",
"'#	c #EFEFEF",
")#	c #E5E5E5",
"!#	c #A9A9A9",
"~#	c #707070",
"{#	c #727170",
"]#	c #D3EAE9",
"^#	c #D5F2FA",
"/#	c #D4F2F4",
"(#	c #69777A",
"_#	c #5B6668",
":#	c #E4ECEE",
"<#	c #AEB6B8",
"[#	c #17181A",
"}#	c #7F7D7E",
"|#	c #FEFEFC",
"1#	c #F2F7FA",
"2#	c #CDCDCD",
"3#	c #EBEBEB",
"4#	c #F5F5F5",
"5#	c #F3F3F3",
"6#	c #F2F2F2",
"7#	c #EDEDED",
"8#	c #D0D0D0",
"9#	c #6E6E6E",
"0#	c #926A4A",
"a#	c #D4F1F3",
"b#	c #D5F1FC",
"c#	c #687679",
"d#	c #5A6567",
"e#	c #E7ECEF",
"f#	c #E6F8FA",
"g#	c #D9E3E4",
"h#	c #07080A",
"i#	c #4C5657",
"j#	c #394143",
"k#	c #212123",
"l#	c #FBFFFF",
"m#	c #FCFCFC",
"n#	c #9B9086",
"o#	c #C3C3C3",
"p#	c #E7E7E7",
"q#	c #F4F4F4",
"r#	c #F6F6F6",
"s#	c #F8F8F8",
"t#	c #E8E8E8",
"u#	c #CCCCCC",
"v#	c #93877E",
"w#	c #D7F2F5",
"x#	c #677578",
"y#	c #596466",
"z#	c #E8EDF0",
"A#	c #F0FBFD",
"B#	c #EAF9FC",
"C#	c #1E1F21",
"D#	c #434B4D",
"E#	c #454F50",
"F#	c #0F1012",
"G#	c #C0C0C0",
"H#	c #EFF9FA",
"I#	c #6C6662",
"J#	c #949494",
"K#	c #E2E2E2",
"L#	c #FAFAFA",
"M#	c #F7F7F7",
"N#	c #E9E9E9",
"O#	c #9B9B9B",
"P#	c #D8E9EA",
"Q#	c #798B8D",
"R#	c #667477",
"S#	c #586365",
"T#	c #E9EDF0",
"U#	c #636466",
"V#	c #2E3638",
"W#	c #495355",
"X#	c #262C2C",
"Y#	c #626463",
"Z#	c #FFFEFB",
"`#	c #FBFDFC",
" $	c #B59E87",
".$	c #E1E1E1",
"+$	c #F9F9F9",
"@$	c #EAEAEA",
"#$	c #CECECE",
"$$	c #A89785",
"%$	c #788A8C",
"&$	c #657376",
"*$	c #556062",
"=$	c #030504",
"-$	c #EAEEEF",
";$	c #EDF9F9",
">$	c #A7B1B0",
",$	c #171B1E",
"'$	c #4C5456",
")$	c #40484B",
"!$	c #0D0F0E",
"~$	c #FDFFFE",
"{$	c #7E7873",
"]$	c #828282",
"^$	c #D9D9D9",
"/$	c #E0E0E0",
"($	c #E6E6E6",
"_$	c #F0F0F0",
":$	c #F1F1F1",
"<$	c #DCDCDC",
"[$	c #8B8B8B",
"}$	c #8B7561",
"|$	c #8C9FA3",
"1$	c #647275",
"2$	c #545F61",
"3$	c #EFFBFB",
"4$	c #E9F8FD",
"5$	c #E9F4F8",
"6$	c #0F1314",
"7$	c #485253",
"8$	c #18191D",
"9$	c #A6A8A7",
"0$	c #FBFDFB",
"a$	c #9E9E9E",
"b$	c #D8D8D8",
"c$	c #DEDEDE",
"d$	c #E3E3E3",
"e$	c #76675A",
"f$	c #D7F0F4",
"g$	c #77898D",
"h$	c #637174",
"i$	c #525D5F",
"j$	c #EDEEF0",
"k$	c #F7FCFF",
"l$	c #E3F8F9",
"m$	c #E5F6FD",
"n$	c #EAF7FF",
"o$	c #6A7372",
"p$	c #2C3232",
"q$	c #4C5858",
"r$	c #33383C",
"s$	c #474948",
"t$	c #E5E5E4",
"u$	c #AEAEAE",
"v$	c #D5D5D5",
"w$	c #B1B1B1",
"x$	c #D8DEDE",
"y$	c #627073",
"z$	c #515C5E",
"A$	c #E3F6FC",
"B$	c #D2E0E1",
"C$	c #515B5D",
"D$	c #485355",
"E$	c #020204",
"F$	c #E1E5E8",
"G$	c #FAFEFD",
"H$	c #EBEBED",
"I$	c #E3E3E1",
"J$	c #B2B2B2",
"K$	c #D3D3D3",
"L$	c #DDDDDD",
"M$	c #D4D4D4",
"N$	c #B4B4B4",
"O$	c #D7DFDC",
"P$	c #788A8E",
"Q$	c #627174",
"R$	c #040404",
"S$	c #EFEFF1",
"T$	c #5A6060",
"U$	c #4E5A5A",
"V$	c #232428",
"W$	c #878B8E",
"X$	c #E7EBEA",
"Y$	c #E8E9EB",
"Z$	c #4B4B4B",
"`$	c #3D3B3E",
" %	c #FAFBFD",
".%	c #E4E4E2",
"+%	c #AAAAAA",
"@%	c #DFDFDF",
"#%	c #D6D6D6",
"$%	c #D1D1D1",
"%%	c #B0B0B0",
"&%	c #696867",
"*%	c #D4DFDD",
"=%	c #90A3A7",
"-%	c #7B8D91",
";%	c #647376",
">%	c #535E60",
",%	c #F8FEFC",
"'%	c #D2E4E6",
")%	c #101113",
"!%	c #434D4E",
"~%	c #414B4C",
"{%	c #121212",
"]%	c #000304",
"^%	c #3B3D3C",
"/%	c #D8D9DB",
"(%	c #0E0D0B",
"_%	c #929292",
":%	c #F8FDFD",
"<%	c #959595",
"[%	c #CACACA",
"}%	c #CFCFCF",
"|%	c #DADADA",
"1%	c #D7D7D7",
"2%	c #D2D2D2",
"3%	c #979797",
"4%	c #776456",
"5%	c #D6F3F7",
"6%	c #A3BBBF",
"7%	c #93A6AA",
"8%	c #7F9195",
"9%	c #69787B",
"0%	c #E1F6FB",
"a%	c #879192",
"b%	c #23282B",
"c%	c #535D5E",
"d%	c #464E51",
"e%	c #444C4E",
"f%	c #171B1A",
"g%	c #9D9F9E",
"h%	c #0C0C0C",
"i%	c #DEDFE1",
"j%	c #83766B",
"k%	c #7E7E7E",
"l%	c #C9C9C9",
"m%	c #C6C6C6",
"n%	c #838383",
"o%	c #83766C",
"p%	c #A6BEC2",
"q%	c #839599",
"r%	c #6E7D80",
"s%	c #EAF7FD",
"t%	c #E7F9FB",
"u%	c #E4F8F9",
"v%	c #424647",
"w%	c #272F31",
"x%	c #515D5D",
"y%	c #363E40",
"z%	c #0D0C0A",
"A%	c #DFE0E2",
"B%	c #515151",
"C%	c #464749",
"D%	c #B89E81",
"E%	c #B3B3B3",
"F%	c #C8C8C8",
"G%	c #C4C4C4",
"H%	c #BABABA",
"I%	c #9E9892",
"J%	c #D5F4F9",
"K%	c #9CAFB3",
"L%	c #768389",
"M%	c #657072",
"N%	c #040507",
"O%	c #F1EFF0",
"P%	c #F9FDFC",
"Q%	c #DDE8EA",
"R%	c #202427",
"S%	c #323A3C",
"T%	c #373D3D",
"U%	c #394545",
"V%	c #24292C",
"W%	c #484848",
"X%	c #E6EAE9",
"Y%	c #949897",
"Z%	c #EAF0F0",
"`%	c #676665",
" &	c #909090",
".&	c #BDBDBD",
"+&	c #C5C5C5",
"@&	c #C7C7C7",
"#&	c #C2C2C2",
"$&	c #BEBEBE",
"%&	c #919191",
"&&	c #686766",
"*&	c #D3DEDD",
"=&	c #D3F2F5",
"-&	c #7B8F8E",
";&	c #6C7C7B",
">&	c #0E0F11",
",&	c #DADADC",
"'&	c #C8CDD1",
")&	c #626367",
"!&	c #525453",
"~&	c #333134",
"{&	c #303433",
"]&	c #3F3D40",
"^&	c #E7E8ED",
"/&	c #F3FCF7",
"(&	c #A48567",
"_&	c #786555",
":&	c #A6A6A6",
"<&	c #BFBFBF",
"[&	c #C1C1C1",
"}&	c #BCBCBC",
"|&	c #696969",
"1&	c #968678",
"2&	c #D4F3F6",
"3&	c #B3CBCF",
"4&	c #97ACB1",
"5&	c #879AA1",
"6&	c #7A878D",
"7&	c #7F8382",
"8&	c #F8FDFF",
"9&	c #F4F9FC",
"0&	c #F8FEFE",
"a&	c #E4F3F6",
"b&	c #7E6348",
"c&	c #A4A4A4",
"d&	c #B6B6B6",
"e&	c #B9B9B9",
"f&	c #6C6C6C",
"g&	c #D9EDF0",
"h&	c #83969A",
"i&	c #697B7B",
"j&	c #09080D",
"k&	c #C2CBCA",
"l&	c #F3FDFE",
"m&	c #EFF9FB",
"n&	c #F2F9FF",
"o&	c #F5FAFF",
"p&	c #E9F4F4",
"q&	c #8FA090",
"r&	c #636762",
"s&	c #5E5E5E",
"t&	c #6D6D6D",
"u&	c #8F8F8F",
"v&	c #ACACAC",
"w&	c #9CA59C",
"x&	c #E2EFF0",
"y&	c #D7F2F7",
"z&	c #B4CDD1",
"A&	c #A0B1B9",
"B&	c #87999B",
"C&	c #4D5758",
"D&	c #070508",
"E&	c #727B7A",
"F&	c #C2CACC",
"G&	c #EDF8FE",
"H&	c #ECFAFA",
"I&	c #8CA18D",
"J&	c #5D5D5D",
"K&	c #5C5C5C",
"L&	c #636363",
"M&	c #777777",
"N&	c #9F9F9F",
"O&	c #757575",
"P&	c #787878",
"Q&	c #797979",
"R&	c #767676",
"S&	c #666666",
"T&	c #656565",
"U&	c #98A99A",
"V&	c #D6F2F5",
"W&	c #A9C1C3",
"X&	c #9FB7BB",
"Y&	c #97ABB2",
"Z&	c #93A2A9",
"`&	c #7D9094",
" *	c #434E50",
".*	c #020001",
"+*	c #010101",
"@*	c #6A766F",
"#*	c #646764",
"$*	c #808080",
"%*	c #9A9A9A",
"&*	c #747474",
"**	c #858585",
"=*	c #7B7B7B",
"-*	c #7A7A7A",
";*	c #848484",
">*	c #B7B7B7",
",*	c #727272",
"'*	c #5A8355",
")*	c #B4CECF",
"!*	c #99B1B5",
"~*	c #96ABAE",
"{*	c #92A7AA",
"]*	c #93A8AB",
"^*	c #94A9AC",
"/*	c #98ADB0",
"(*	c #99AEB1",
"_*	c #98ADAE",
":*	c #98ABB2",
"<*	c #91C3A0",
"[*	c #A0A0A0",
"}*	c #9D9D9D",
"|*	c #626661",
"1*	c #DAF1F5",
"2*	c #BED5DB",
"3*	c #B6D2D6",
"4*	c #B4C8CF",
"5*	c #A3B7BE",
"6*	c #A2BABE",
"7*	c #A4BCC0",
"8*	c #A4BDC2",
"9*	c #B3BEBF",
"0*	c #52704D",
"a*	c #717171",
"b*	c #969696",
"c*	c #A3A3A3",
"d*	c #5B5B5B",
"e*	c #6A7E68",
"f*	c #D1F2FB",
"g*	c #B1CACF",
"h*	c #AFC8CD",
"i*	c #B1CACE",
"j*	c #669663",
"k*	c #868686",
"l*	c #7D7D7D",
"m*	c #9C9C9C",
"n*	c #989898",
"o*	c #A1BFA9",
"p*	c #D1ECF3",
"q*	c #BAD5DE",
"r*	c #386E29",
"s*	c #CBCBCB",
"t*	c #6F896B",
"u*	c #B3B9B4",
"v*	c #878787",
"w*	c #545F52",
"x*	c #CCE9ED",
"y*	c #7B907A",
"z*	c #616161",
"A*	c #BBBBBB",
"B*	c #566153",
"C*	c #597855",
"D*	c #737373",
"E*	c #5D685A",
"F*	c #45673D",
"G*	c #7F7F7F",
"H*	c #A2A2A2",
"I*	c #677762",
"J*	c #597854",
"K*	c #646464",
"L*	c #939393",
"M*	c #4B6944",
"N*	c #BBCCC3",
"O*	c #648D61",
"P*	c #D7F1F5",
"Q*	c #D9F1F6",
"R*	c #D9EEF0",
"S*	c #C6DED6",
"T*	c #CCDCD7",
"U*	c #9CB3A0",
"V*	c #8FAB92",
"W*	c #8BAD8E",
"X*	c #89B08F",
"Y*	c #88AE8D",
"Z*	c #82A584",
"`*	c #6A8967",
" =	c #798478",
".=	c #7F817E",
"+=	c #778476",
"@=	c #6D8869",
"#=	c #698967",
"$=	c #678C62",
"%=	c #759F74",
"&=	c #89AD8D",
"*=	c #8AAD8D",
"==	c #90AB93",
"-=	c #BCCDC4",
";=	c #CEDBD7",
">=	c #E5EBEC",
",=	c #E1EFF2",
"'=	c #D6F2F8",
"  . . . . + + + + @ @ # @ @ @ @ @ @ @ @ @ @ @ @ @ + + + . . . .     $                           ",
". + + @ # % & * * = = - - - - - - - - - - - ; ; > , & % # @ + + . .                             ",
"@ @ # * = ' ) ! ~ { ] ^ ^ ^ / ^ / ^ ^ ( ( _ _ : ~ < [ } | * % # @ + .                           ",
"% , - [ { ^ 1 2 3 4 5 6 6 6 7 6 7 7 7 8 8 5 5 4 9 0 1 ( : a ; , % @ + .                         ",
"b c d e f 5 g h i j k l l l m l m m n o p q r s t u g 5 v w < ' > % @ + .                       ",
"x { 1 4 y j z A B C D E E E F F G G H I J I H F K B L s y 5 M { x = % @ .                       ",
"{ N 8 i O P Q R S T U V V V W X Y Z `  . . ...Z W +.J @.#.$.8 N ] %.& # +                       ",
"M 8 &.A *.=.X -.;.>.,.'.,.).!.!.'.'.,.,.,.,.,.~.~.,.{.'.,.].^./.(._.:.% + .                     ",
"4 t <.[.}.|.1.2.3.4.5.5.6.7.7.8.9.0.a.9.0.0.b.6.c.d.e.f.g.h.i.j.k.l.x & @ .                     ",
"y L m.n.o.p.q.r.s.t.u.v.0.0.w.w.x.y.z.A.y.B.z.C.D.E.F.G.H.I.J.K.L.M.N.= # .                     ",
"O.P.Q.R.S.T.U.V.B.W.X.v.Y.D.V.Z.`. +.+++++++@+#+B.Y.b.$+%+&+*+=+-+;+>+} % .                     ",
"p I ,+'+)+!+~+A.{+X.]+0.^+z./+(+_+:+<+[+}+}+|+|+1+B.v.2+G.f.3+*+4+5+6+7+& +                     ",
"8+S 9+0+a+b+c+d+e+E.f+5.b.g+h+i+j+k+{.l+m+m+m+m+n+++o+b.p+q+r+s+t+u+0 v+& +   .                 ",
"C w+x+y+z+A+B+D.C+D+E+F.F+G+H+I+2.J+K+L+m+m+m+m+M+N+d+O+P+Q+R+  _.S+T+t+* +                     ",
"E U+V+W+X+Y+Z+`+2+ @p+.@+@@@#@$@2.%@&@*@=@=@m+-@M+@+d+9.;@>@I.,@'@)@!@~@= +                     ",
"H {@]@^@/@(@_@b.d.:@<@.@[@}@|@1@2@3@4@5@m+=@6@7@M+++B.8@P+9@0@  _.a@4 b@> c@d@e@=+f@            ",
"J  .g@h@i@j@_@O+k@<@<@d.[@l@|@m@n@o@m+m+7@p@m+7@M+q@r@s@t@u@v@w@x@y@z@A@B@C@D@e@E@J.F@          ",
"J G@H@I@J@j@_@O+k@<@k@2+K@L@M@N@O@p@=@P@m+p@=@m+|+Q@R@v.S@T@U@V@V@W@W@X@X@Y@Z@F@  `@,@          ",
" #.#+#I@@#j._@b.t@:@k@2+##$#%#a@&#p@=@7@m+m+m+m+-@1+*#0.=#-#V@;#>#,#'#)#!#~#{#]#^#$ /#          ",
" #.#+#(#_#Y+:#b.d.:@k@F.<#[#%#i+}#m+m+7@|#p@=@7@M+@+y.1#~#~#2#3#'#4#5#6#7#8#9#0#a#b#            ",
"J .#+#c#d#Y+e#9.F.:@k@f#g#h#i#j#k#m+m+p@m+p@6@m+l#m#d+n#X@o#p#7#q#r#s#4#'#t#u#V@v#w#            ",
"J .#+#x#y#Y+z#A#B#k@k@t@b.C#D#E#F#G#m+p@p@m+M+p@-@@+H#I#J#K#p#,#q#L#m#M#6#N#>#O#V@P#,@          ",
"J .#Q#R#S#Y+T#w.B#k@P+t@f+U#V#W#X#Y#=@=@m+Z#p@7@M+`# $X@u#.$t#7#q#+$L#4#'#@$K##$V@$$e@          ",
" #9+%$&$*$=$-$s.;$$+:@P+$+>$,$'$)$!$r#7@~$=@=@p@|+++{$]$^$/$($3#_$q#4#:$7#p#.$<$[$}$J.          ",
" #|$%$1$2$=$-$d+3$4$:@:@k@5$6$%#7$8$9$M+p@=@m+~$M+0$V@a$b$c$d$t#7#'#:$,#@$)#/$^$a$e$f$          ",
" #|$g$h$i$Y+j$k$^+6.t@l$m$n$o$p$q$r$s$P@|#M+~$m+~$t$X@u$v$&#.$)#p#@$3#@$p#.$<$^$w$X@x$          ",
"J .#g$y$z$Y+j$++x.a.F..@A$ @B$Y+C$D$E$F$G$M+6#H$|+I$X@J$K$b$c$.$>#($)#>#K#L$&#M$N$V@O$          ",
"J G@P$Q$z$R$S$@+#+Y.O+$+k@P+t@T$@@U$V$W$X$Y$Z$`$ %.%V@+%#$M$^$<$/$.$.$@%c$^$#%$%%%&%*%          ",
"H =%-%;%>%R$'#|+,%d+v.4$.@<@%+'%)%!%~%{%]%^%/%(%_%:%V@<%[%}%M$b$|%&#&#&#1%b$2%[%3%4%5%          ",
"6%7%8%9%S#R$_$~$G$k$z.7.F.:@:@0%a%b%c%d%e%f%_%g%h%i%j%k%o#l%}%M$v$1%#%#%M$$%u#m%n%o%^#          ",
"p%W q%r%@#Y+_$-@~$1+B.Y.s%t%<@k@u%v%w%x%%#y%z%A%B%C%D%V@E%o#F%u#}%8#$%8##$l%G%H%V@I%J%          ",
"<.K%R.L%M%N%O%m+-@G$P%A.^+b.c.d.t%Q%R%S%T%U%V%W%X%Y%Z%`% &.&G#+&@&m%F%F%m%#&$&%&&&*&*+`@=&,@F@E@",
"L J =%-&;&>&,&|+l#}+ %k$z.0.7.B#B#9.'&)&!&~&{&]&^&/&X.(&_&:&H%$&<&[&[&<&$&}&;#|&1&2&e@b#^#  ,@J.",
"3&K 4&5&6&S%7&Q@P%++8&B.d+v.0.5.`+]+X.9&x.q@0&`#Z.r@6.a&b&9#c&d&5@e&e&e&d&:&f&X@g&J%. e@  e@J.,@",
"h L I Z h&i&j&k&x.d+l&z.z.^+m&A#O+0.^+w.n&o&W.W.u.p&q&r&s&X@t&u&v&%%w$v&%&f&X@s&-#w&x&y&=+J%  e@",
"5 z&<.A&,+B&C&D&E&F&0.a.6.8.6.6.B#6.6.7.G&G&b.H&I&J&K&L&M&N&O&V@X@P&Q&X@V@R&N&-#S&K&T&U&`@V&,@2&",
"N 8 $.W&X&Y&Z&`& *N@.*,.+*!..*,.,.,.+*'.'.,.@*#*K&$*$&%*&*@&J$%***=*-*;*%*E%.&O&c&>*,*J&'*F@  ^#",
"{ N 7 )*L K J !*~*{*{*,+,+]*^*~*/*(*Q._*:*<*K&L&N$v$#%[&&*J$^$>*J$J$J$w$e&<$[*R&u##%M$}*J&|*1*$ ",
"x ] 1 2*3*4*p <.P.E 5*H H G 6*6%D 7*P.8*9*0*a*m%K$v$^$&#b*O&J$m+7#L$<$3#M#;#O&c*|%^$v$$%w$d*e*f*",
"> ) ~ / 0 6 g u t g*h*h*h*h*h*h*/./.g*i*j*J&E%2#2%v$^$|%b$ &&*k*w$K$v$w$l*O&m*@%&#^$#%2%u#n*K&o*",
"p*> - ) { / 1 f 3 4 5 8 8 8 8 8 8 5 5 q*r*W@+&s*8#v$1%^$<$c$e&U@R&O&O&&* &.&/$&#|%1%v$8#s*o#V@t*",
"@ # p*, ; ' [ < d { ] ^ ^ ^ ^ / ^ ^ ^ u*K&!#G#@&s*$%M$#%^$|%<$c$b$+&G%c$c$<$|%^$1%K$8#s*G%G#v*w*",
". + + @ @ % & & * = x*= = | | | | = = y*z*N$A*$&G%l%2#2%K$#%1%^$b$|%^$^$b$b$v$v$$%2#l%o#G#H%c&B*",
"      . . . + + + @ @ @ @ @ @ @ @ @ @ C*D*u$J$d&A*<%>*F%s*#$}%8#M$2%K$2%$%}%2#s*m%d&<%H%d&J$u$E*",
"$                                     F*G*:&+%u$H*d*%&}&<&G#G%G%@&m%m%m%G%G%G#$&A*b*J&[*u$+%c&I*",
"                                      J*K*Q&G*L*v*K&%*%%J$N$d&>*5@e&e&>*5@d&N$J$w$n*K&v*L*G*Q&M*",
"                                      N*W@J&K&J&J&J&J&K&K&J&z*,*,*,*a*a*a*~#S&J&K&K&K&K&K&J&K&O*",
"                                        P*Q*R*S*T*U*V*W*X*Y*Z*`* =.=+=@=#=$=%=Y*&=*===-=;=>=,='="};
